<svg width="32" height="32" viewBox="0 0 256 257" fill="none" xmlns="http://www.w3.org/2000/svg">
<g clip-path="url(#clip0_4_4)">
<path d="M129.053 103.048C129.064 105.873 129.064 108.391 129.064 110.973C126.964 111.434 126.58 109.836 126.385 107.758C125.105 94.1282 121.035 82.3886 114.016 72.6754C95.9921 47.733 65.9403 50.883 50.8796 79.3642C43.5136 93.2938 41.1573 109.143 41.9889 126.131C42.031 126.991 42.2709 127.883 41.7136 128.833C40.3337 127.581 40.7696 125.426 40.6304 123.84C39.4378 110.247 39.9463 96.7856 43.9322 84.1046C50.693 62.5959 63.0182 51.1002 79.4409 48.347C96.1898 45.5391 109.85 54.3416 120.4 72.2816C125.537 81.0183 128.278 91.4228 129.053 103.048Z" fill="url(#paint0_linear_4_4)"/>
<path d="M41.733 36.2462C47.859 43.0527 54.7084 46.9274 62.0643 48.7986C61.9943 50.2201 61.3777 50.3022 60.9503 50.6122C56.15 54.0933 51.2779 57.3466 46.2215 59.9794C42.406 61.9659 39.9526 60.5562 38.5993 55.013C36.4945 46.3916 35.342 37.4002 34.0643 28.4712C34.2212 28.2585 34.3782 28.0459 34.5351 27.8333C36.8941 30.5876 39.253 33.342 41.733 36.2462Z" fill="url(#paint1_linear_4_4)"/>
<path d="M56.3139 38.972C54.8224 35.5422 54.9795 32.1469 55.217 28.5799C55.6814 21.6047 56.6992 14.7515 57.4455 7.84025C57.545 6.91902 57.8725 6.04102 58.5053 4.83325C63.4653 19.4933 70.3162 31.8657 81.0643 39.5655C80.7486 40.9833 80.0071 40.9101 79.3988 40.9165C73.3741 40.981 67.3799 42.1148 61.3417 41.7672C59.4435 41.6579 57.7659 41.0483 56.3139 38.972Z" fill="url(#paint2_linear_4_4)"/>
<path d="M136.484 37.4718C130.472 49.3578 127.269 62.5608 126.606 77.8333C125.008 75.6953 124.519 73.3414 123.68 71.3791C121.013 65.1432 118.861 58.4934 116.896 51.7222C115.067 45.421 116.246 41.4018 120.531 38.7138C126.448 35.0018 132.738 32.9985 138.79 29.9012C139.066 29.7597 139.403 29.8831 140.064 29.8831C139.385 33.1283 137.548 34.7737 136.484 37.4718Z" fill="url(#paint3_linear_4_4)"/>
<path d="M130.187 74.9583C130.142 73.1704 130.015 71.6754 130.085 70.2006C130.276 66.2103 131.919 63.2428 134.619 63.0843C141.346 62.6895 148.087 62.6073 154.783 63.9983C155.208 64.0865 155.738 64.1237 156.064 65.4729C145.853 73.1122 137.807 84.177 132.771 99.8333C131.298 91.6804 130.987 83.4142 130.187 74.9583Z" fill="url(#paint4_linear_4_4)"/>
<path d="M35.3555 102.666C34.4778 106.388 33.5669 109.825 32.1499 112.96C30.9053 115.713 28.2708 117.511 26.2409 116.59C19.1107 113.355 13.2722 107.139 7.06427 101.398C12.728 100.364 18.3062 99.7883 23.707 97.6308C29.1997 95.4366 33.8914 91.2228 39.0643 86.8333C38.3191 92.7613 36.4039 97.4029 35.3555 102.666Z" fill="url(#paint5_linear_4_4)"/>
<path d="M91.9802 27.6497C93.5555 33.7194 96.5038 38.3116 99.0643 43.5891C97.4641 44.31 96.2737 43.2589 95.114 42.7009C90.2634 40.3671 85.4264 37.9658 80.6371 35.3937C77.9678 33.9602 76.7183 30.5376 77.1469 26.7079C77.597 22.6871 85.053 3.38228 87.7276 -0.166748C88.4679 9.52133 89.1767 18.8124 91.9802 27.6497Z" fill="url(#paint6_linear_4_4)"/>
<path d="M98.9106 27.7653C101.952 21.8083 105.993 17.9047 109.673 13.4061C111.609 11.0403 113.663 8.89076 116.064 6.83325C112.417 23.5296 111.141 40.1225 115.835 56.7753C114.275 57.123 113.656 55.8286 112.966 54.9812C108.849 49.9231 104.751 44.8292 100.701 39.6531C97.81 35.9591 97.4303 33.2779 98.9106 27.7653Z" fill="url(#paint7_linear_4_4)"/>
<path d="M18.4216 68.7324C17.2353 66.324 16.1498 64.1036 15.0643 61.8832C15.1558 61.5332 15.2473 61.1833 15.3388 60.8333C25.7135 66.4874 36.2242 68.7842 46.8432 63.9695C47.3356 65.1692 46.8935 65.5956 46.5982 66.0468C42.8611 71.7559 39.1729 77.5361 35.356 83.13C31.8661 88.2445 29.2398 88.0897 25.9241 82.4888C23.3362 78.1174 20.981 73.454 18.4216 68.7324Z" fill="url(#paint8_linear_4_4)"/>
<path d="M161.149 106.065C151.272 107.564 142.476 112.053 135.157 121.833C133.387 118.985 132.512 116.465 133.439 112.86C134.633 108.212 135.327 103.304 136.5 98.6425C138.078 92.372 140.577 90.7207 145.075 92.5141C148.772 93.9881 152.15 96.5614 155.575 98.9201C158.111 100.666 160.768 102.152 163.064 104.536C162.891 106.208 161.878 105.5 161.149 106.065Z" fill="url(#paint9_linear_4_4)"/>
<path d="M162.359 122.834C149.086 128.935 137.042 137.775 126.064 149.833C126.68 143.424 137.532 130.318 147.123 124.141C158.316 116.933 180.475 112.206 185.064 116.421C177.198 117.424 169.806 119.678 162.359 122.834Z" fill="url(#paint10_linear_4_4)"/>
<path d="M89.0804 209.764C99.0098 209.515 107.759 204.991 115.798 197.405C117.965 195.36 119.787 192.743 120.947 189.318C122.086 185.953 121.748 183.951 119.577 181.877C116.911 179.33 113.781 178.771 110.75 177.816C103.924 175.666 96.9045 174.743 90.3103 171.113C87.2274 169.416 84.3059 167.367 82.0847 163.711C77.7762 156.619 77.5074 147.209 81.4747 139.638C85.5007 131.954 91.1981 127.473 97.0842 123.587C104.402 118.754 112.027 115.307 120.176 114.847C121.839 114.753 123.452 115.155 125.015 115.787C130.499 118.005 132.636 126.055 129.831 133.93C128.01 139.043 124.876 141.83 121.184 143.472C120.45 143.799 119.596 144.043 119.027 142.95C118.419 141.783 118.722 140.604 119.217 139.52C119.901 138.026 120.714 136.632 121.275 135.051C122.173 132.518 121.533 130.984 119.531 130.741C117.824 130.533 116.109 130.572 114.423 131.158C105.779 134.167 97.7623 139.177 90.5748 146.773C89.3418 148.076 87.5413 149.427 87.7156 151.708C87.9076 154.221 89.9742 154.901 91.454 155.722C97.2011 158.911 103.285 160.379 109.212 162.653C113.065 164.131 116.715 166.228 120.189 169.104C129.423 176.749 130.221 192.357 124.621 203.024C119.594 212.6 112.581 218.088 104.829 221.714C97.0496 225.353 89.0892 227.027 80.9231 224.887C79.4768 224.507 78.0244 223.962 76.6604 223.183C70.1283 219.453 68.2077 211.386 71.9811 202.815C75.8651 193.993 81.8543 189.07 88.45 185.451C89.1736 185.054 89.8607 185.076 90.3033 186.113C90.8274 187.341 90.1269 187.946 89.5818 188.553C86.6205 191.849 83.6771 195.189 81.5678 199.726C78.7316 205.826 79.9654 209.246 85.1167 209.675C86.3594 209.778 87.6078 209.74 89.0804 209.764Z" fill="url(#paint11_linear_4_4)"/>
<path d="M30.2864 151.964C28.9651 151.358 27.6201 151.507 26.0643 149.531C44.615 152.149 62.0073 149.668 79.0643 139.833C78.2118 143.25 77.6401 145.762 76.9438 148.22C76.6792 149.154 75.8251 149.367 75.1204 149.65C65.1305 153.67 54.9249 155.517 44.4066 154.604C39.7007 154.196 35.0598 153.418 30.2864 151.964Z" fill="url(#paint12_linear_4_4)"/>
<path d="M74.0572 129.176C77.8228 127.104 81.2914 124.691 85.0643 121.833C84.8841 124.605 83.6415 125.418 82.7943 126.535C75.9327 135.582 67.7997 140.869 58.8961 143.74C39.3102 150.055 20.6198 146.974 3.10032 131.961C1.0563 130.209 1.07189 130.17 0.06427 127.572C24.7303 144.239 49.2709 142.351 74.0572 129.176Z" fill="url(#paint13_linear_4_4)"/>
<path d="M183.089 137.627C174.658 163.702 164.796 188.721 159.312 216.315C158.411 220.851 157.903 221.111 154.808 219.233C153.174 218.241 151.809 216.734 150.568 214.994C149.162 213.025 148.71 210.813 149.348 208.015C152.01 196.348 155.716 185.28 159.193 174.082C161.91 165.334 164.663 156.608 167.547 147.404C165.886 147.665 164.555 149.298 163.232 147.619C162.209 146.322 161.422 144.833 160.908 143.047C159.596 138.487 160.269 135.118 163.373 132.47C170.346 126.522 178.146 123.94 186.084 122.051C191.989 120.646 197.896 120.218 203.82 122.063C212.162 124.662 217.424 131.972 218.697 143.497C219.564 151.346 217.119 157.831 213.539 163.5C207.371 173.267 199.215 178.786 190.831 183.745C188.658 185.031 186.437 186.156 184.114 187.422C184.614 190.048 185.754 191.783 186.761 193.569C193.153 204.904 200.731 214.272 210.301 220.014C219.322 225.426 228.436 227.554 237.423 219.472C238.65 221.302 237.859 222.703 237.176 223.979C232.61 232.509 226.382 237.007 218.896 237.739C210.112 238.599 202.628 233.447 195.706 226.588C185.311 216.286 177.663 202.682 171.789 186.99C170.255 182.891 171.045 178.879 174.875 177.616C185.768 174.023 195.493 166.77 204.256 157.049C206.886 154.131 209.198 150.755 210.915 146.687C213.271 141.106 212.126 137.059 207.688 135.251C202.929 133.313 198.083 133.738 193.269 134.624C189.893 135.246 186.521 136.063 183.089 137.627Z" fill="url(#paint14_linear_4_4)"/>
<path d="M229.248 128.833C226.37 128.212 223.586 128.274 220.754 125.706C226.984 121.679 232.892 117.75 237.172 110.415C229.53 117.073 221.165 120.764 212.392 122.885C211.607 121.485 212.431 120.493 212.795 119.47C218.529 103.349 227.806 95.144 240.552 94.4401C245.659 94.158 250.752 93.3851 255.875 92.8333C255.961 93.3695 256.112 93.7336 256.049 93.9964C253.536 104.56 250.401 114.57 244.008 121.806C239.74 126.639 234.863 128.785 229.248 128.833Z" fill="url(#paint15_linear_4_4)"/>
<path d="M65.8974 236.313C96.0333 236.457 123.858 226.516 149.064 202.833C147.817 206.999 148.263 212.036 145.346 215.175C131.254 230.347 115.364 239.56 97.8447 243.577C88.4474 245.731 78.9903 246.335 69.5535 245.422C49.9355 243.523 31.4117 236.113 14.3398 222.163C13.8106 221.731 13.1234 221.471 13.0643 220.293C13.9106 219.514 14.5743 220.426 15.2414 220.821C30.2226 229.691 45.815 234.801 62.0762 235.847C63.2767 235.925 64.4724 236.147 65.8974 236.313Z" fill="url(#paint16_linear_4_4)"/>
<path d="M163.558 228.566C155.919 241.844 145.941 248.607 135.167 253.188C129.732 255.5 124.173 256.912 118.488 256.809C117.726 256.795 116.925 257.033 116.064 256.263C116.698 254.553 117.849 254.68 118.736 254.288C127.813 250.266 136.324 244.588 143.683 235.458C146.205 232.328 148.5 228.859 150.409 224.874C151.322 222.967 152.131 222.288 153.766 223.299C158.323 226.114 160.561 224.836 163.137 218.646C164.47 215.442 165.848 212.268 167.963 209.833C168.574 217.078 166.331 222.829 163.558 228.566Z" fill="url(#paint17_linear_4_4)"/>
<path d="M88.1898 253.483C106.968 251.136 124.159 242.662 139.855 227.48C140.2 227.146 140.535 226.786 140.89 226.479C141.463 225.984 142.076 225.397 142.675 226.317C143.321 227.309 143.066 228.398 142.615 229.345C141.803 231.054 140.884 232.614 139.805 233.981C131.393 244.635 121.421 250.024 110.84 253.093C102.945 255.383 94.9502 256.467 86.8898 255.45C86.2817 255.374 85.5628 255.726 85.0643 254.487C85.8561 252.986 86.9972 253.706 88.1898 253.483Z" fill="url(#paint18_linear_4_4)"/>
</g>
<defs>
<linearGradient id="paint0_linear_4_4" x1="40.0643" y1="47.8333" x2="129.064" y2="47.8333" gradientUnits="userSpaceOnUse">
<stop stop-color="#FF9800"/>
<stop offset="1" stop-color="#FFEB3B"/>
</linearGradient>
<linearGradient id="paint1_linear_4_4" x1="34.0643" y1="27.8333" x2="62.0643" y2="27.8333" gradientUnits="userSpaceOnUse">
<stop stop-color="#FF9800"/>
<stop offset="1" stop-color="#FFEB3B"/>
</linearGradient>
<linearGradient id="paint2_linear_4_4" x1="55.0643" y1="4.83325" x2="81.0643" y2="4.83325" gradientUnits="userSpaceOnUse">
<stop stop-color="#FF9800"/>
<stop offset="1" stop-color="#FFEB3B"/>
</linearGradient>
<linearGradient id="paint3_linear_4_4" x1="116.064" y1="29.8333" x2="140.064" y2="29.8333" gradientUnits="userSpaceOnUse">
<stop stop-color="#FF9800"/>
<stop offset="1" stop-color="#FFEB3B"/>
</linearGradient>
<linearGradient id="paint4_linear_4_4" x1="130.064" y1="62.8333" x2="156.064" y2="62.8333" gradientUnits="userSpaceOnUse">
<stop stop-color="#FF9800"/>
<stop offset="1" stop-color="#FFEB3B"/>
</linearGradient>
<linearGradient id="paint5_linear_4_4" x1="7.06427" y1="86.8333" x2="39.0643" y2="86.8333" gradientUnits="userSpaceOnUse">
<stop stop-color="#FF9800"/>
<stop offset="1" stop-color="#FFEB3B"/>
</linearGradient>
<linearGradient id="paint6_linear_4_4" x1="77.0643" y1="-0.166748" x2="99.0643" y2="-0.166748" gradientUnits="userSpaceOnUse">
<stop stop-color="#FF9800"/>
<stop offset="1" stop-color="#FFEB3B"/>
</linearGradient>
<linearGradient id="paint7_linear_4_4" x1="98.0643" y1="6.83325" x2="116.064" y2="6.83325" gradientUnits="userSpaceOnUse">
<stop stop-color="#FF9800"/>
<stop offset="1" stop-color="#FFEB3B"/>
</linearGradient>
<linearGradient id="paint8_linear_4_4" x1="15.0643" y1="60.8333" x2="47.0643" y2="60.8333" gradientUnits="userSpaceOnUse">
<stop stop-color="#FF9800"/>
<stop offset="1" stop-color="#FFEB3B"/>
</linearGradient>
<linearGradient id="paint9_linear_4_4" x1="133.064" y1="91.8333" x2="163.064" y2="91.8333" gradientUnits="userSpaceOnUse">
<stop stop-color="#FF9800"/>
<stop offset="1" stop-color="#FFEB3B"/>
</linearGradient>
<linearGradient id="paint10_linear_4_4" x1="126.064" y1="114.833" x2="185.064" y2="114.833" gradientUnits="userSpaceOnUse">
<stop stop-color="#FF9800"/>
<stop offset="1" stop-color="#FFEB3B"/>
</linearGradient>
<linearGradient id="paint11_linear_4_4" x1="70.0643" y1="114.833" x2="131.064" y2="114.833" gradientUnits="userSpaceOnUse">
<stop stop-color="#FF9800"/>
<stop offset="1" stop-color="#F44336"/>
</linearGradient>
<linearGradient id="paint12_linear_4_4" x1="26.0643" y1="139.833" x2="79.0643" y2="139.833" gradientUnits="userSpaceOnUse">
<stop stop-color="#FF9800"/>
<stop offset="1" stop-color="#FFEB3B"/>
</linearGradient>
<linearGradient id="paint13_linear_4_4" x1="0.06427" y1="121.833" x2="85.0643" y2="121.833" gradientUnits="userSpaceOnUse">
<stop stop-color="#FF9800"/>
<stop offset="1" stop-color="#FFEB3B"/>
</linearGradient>
<linearGradient id="paint14_linear_4_4" x1="149.064" y1="120.833" x2="261.82" y2="206.604" gradientUnits="userSpaceOnUse">
<stop stop-color="#43A047"/>
<stop offset="0.6" stop-color="#26C6DA"/>
<stop offset="1" stop-color="#1976D2"/>
</linearGradient>
<linearGradient id="paint15_linear_4_4" x1="212.064" y1="92.8333" x2="247.351" y2="135.962" gradientUnits="userSpaceOnUse">
<stop stop-color="#43A047"/>
<stop offset="0.6" stop-color="#26C6DA"/>
<stop offset="1" stop-color="#1976D2"/>
</linearGradient>
<linearGradient id="paint16_linear_4_4" x1="13.0643" y1="202.833" x2="149.064" y2="202.833" gradientUnits="userSpaceOnUse">
<stop stop-color="#64B5F6"/>
<stop offset="1" stop-color="#1976D2"/>
</linearGradient>
<linearGradient id="paint17_linear_4_4" x1="116.064" y1="209.833" x2="168.064" y2="209.833" gradientUnits="userSpaceOnUse">
<stop stop-color="#64B5F6"/>
<stop offset="1" stop-color="#1976D2"/>
</linearGradient>
<linearGradient id="paint18_linear_4_4" x1="85.0643" y1="225.833" x2="143.064" y2="225.833" gradientUnits="userSpaceOnUse">
<stop stop-color="#64B5F6"/>
<stop offset="1" stop-color="#1976D2"/>
</linearGradient>
<clipPath id="clip0_4_4">
<rect width="256" height="257" fill="white"/>
</clipPath>
</defs>
</svg>
