<svg version="1.1" id="Layer_1" xmlns="http://www.w3.org/2000/svg" xmlns:xlink="http://www.w3.org/1999/xlink" x="0px" y="0px"
	 width="100%" viewBox="0 0 1024 1024" enable-background="new 0 0 1024 1024" xml:space="preserve">

<defs>
  <linearGradient id="sunGradient" x1="0" y1="0" x2="1" y2="0">
    <stop offset="0%" stop-color="#FF9800"/>
    <stop offset="100%" stop-color="#FFEB3B"/>
  </linearGradient>
  <linearGradient id="sGradient" x1="0" y1="0" x2="1" y2="0">
    <stop offset="0%" stop-color="#FF9800"/>
    <stop offset="100%" stop-color="#F44336"/>
  </linearGradient>
  <linearGradient id="rGradient" x1="0" y1="0" x2="1" y2="1">
    <stop offset="0%" stop-color="#43A047"/>
    <stop offset="60%" stop-color="#26C6DA"/>
    <stop offset="100%" stop-color="#1976D2"/>
  </linearGradient>
  <linearGradient id="waveGradient" x1="0" y1="0" x2="1" y2="0">
    <stop offset="0%" stop-color="#64B5F6"/>
    <stop offset="100%" stop-color="#1976D2"/>
  </linearGradient>
</defs>

<!-- Sun Arc -->
<path fill="url(#sunGradient)" opacity="1.000000" stroke="none" 
	d="
M474.300537,447.109619 
	C474.323761,451.358795 474.323761,455.146149 474.323761,459.030121 
	C469.926514,459.724609 469.121765,457.319885 468.712921,454.193909 
	C466.031494,433.692017 457.508881,416.032837 442.810211,401.421722 
	C405.065918,363.902283 342.133118,368.640717 310.593781,411.483307 
	C295.168396,432.436920 290.234009,456.278290 291.975403,481.832001 
	C292.063599,483.126221 292.566071,484.467316 291.398834,485.896851 
	C288.509186,484.012848 289.421936,480.771210 289.130554,478.385529 
	C286.633087,457.938446 287.697845,437.689362 296.045013,418.614105 
	C310.203003,386.259705 336.013702,368.967346 370.405365,364.825897 
	C405.479980,360.602203 434.086060,373.843292 456.178711,400.829437 
	C466.937683,413.971497 472.676727,429.622467 474.300537,447.109619 
z"/>

<!-- Sun Rays -->
<path fill="url(#sunGradient)" opacity="1.000000" stroke="none" 
	d="
M289.921906,347.055359 
	C303.583649,357.539673 318.858673,363.508057 335.263336,366.390259 
	C335.107269,368.579895 333.732269,368.706238 332.778931,369.183746 
	C322.073669,374.545929 311.208282,379.557037 299.931732,383.612335 
	C291.422729,386.672333 285.951263,384.500916 282.933228,375.962433 
	C278.239319,362.682617 275.669128,348.833038 272.819550,335.079346 
	C273.169556,334.751801 273.519592,334.424255 273.869598,334.096710 
	C279.130402,338.339325 284.391205,342.581970 289.921906,347.055359 
z"/>
<path fill="url(#sunGradient)" opacity="1.000000" stroke="none" 
	d="
M322.718903,355.117096 
	C319.713196,349.900299 320.029938,344.735840 320.508484,339.310211 
	C321.444214,328.700653 323.495422,318.276520 324.999237,307.764252 
	C325.199646,306.363007 325.859711,305.027527 327.134888,303.190460 
	C337.129974,325.489136 350.935699,344.308136 372.594635,356.019836 
	C371.958557,358.176361 370.464233,358.065033 369.238403,358.074890 
	C357.097809,358.172882 345.018494,359.897491 332.850616,359.368713 
	C329.025482,359.202454 325.644928,358.275330 322.718903,355.117096 
z"/>
<path fill="url(#sunGradient)" opacity="1.000000" stroke="none" 
	d="
M489.465698,351.480774 
	C477.126556,367.829773 470.555481,385.990143 469.194244,406.996979 
	C465.915771,404.056335 464.911224,400.818542 463.189209,398.119446 
	C457.716919,389.542145 453.301117,380.395477 449.267578,371.081909 
	C445.514038,362.414795 447.933502,356.886444 456.726807,353.189178 
	C468.870178,348.083405 481.776978,345.327911 494.196045,341.067688 
	C494.763306,340.873077 495.455536,341.042725 496.811737,341.042725 
	C495.417908,345.506531 491.648682,347.769623 489.465698,351.480774 
z"/>
<path fill="url(#sunGradient)" opacity="1.000000" stroke="none" 
	d="
M476.706696,406.169434 
	C476.610901,403.573547 476.340088,401.402893 476.489624,399.261597 
	C476.894257,393.468018 480.384460,389.159454 486.119537,388.929382 
	C500.407898,388.356171 514.725891,388.236725 528.949951,390.256378 
	C529.852051,390.384430 530.978638,390.438385 531.671143,392.397308 
	C509.980743,403.489044 492.891327,419.554199 482.194763,442.285858 
	C479.067017,430.448578 478.404572,418.446777 476.706696,406.169434 
z"/>
<path fill="url(#sunGradient)" opacity="1.000000" stroke="none" 
	d="
M279.183990,446.032532 
	C277.362427,451.810547 275.471893,457.146271 272.530945,462.012482 
	C269.947937,466.286407 264.480255,469.076691 260.267395,467.646942 
	C245.469009,462.624786 233.351593,452.975983 220.467575,444.064667 
	C232.222214,442.459137 243.799408,441.565155 255.008270,438.216034 
	C266.408081,434.809814 276.145386,428.268524 286.881287,421.454498 
	C285.334839,430.656891 281.359833,437.862274 279.183990,446.032532 
z"/>
<path fill="url(#sunGradient)" opacity="1.000000" stroke="none" 
	d="
M395.669678,336.367554 
	C399.041016,345.572144 405.350647,352.536346 410.830353,360.539673 
	C407.405762,361.632843 404.858307,360.038818 402.376312,359.192627 
	C391.995453,355.653473 381.643707,352.011963 371.394135,348.111359 
	C365.681427,345.937317 363.007324,340.747009 363.924713,334.939301 
	C364.887909,328.841675 380.844604,299.565918 386.568604,294.183807 
	C388.152863,308.875793 389.669739,322.965729 395.669678,336.367554 
z"/>
<path fill="url(#sunGradient)" opacity="1.000000" stroke="none" 
	d="
M409.738037,337.047485 
	C416.083862,328.710358 424.515259,323.247131 432.194702,316.951080 
	C436.233246,313.640045 440.519989,310.631714 445.529907,307.752136 
	C437.920624,331.119385 435.257263,354.341919 445.052521,377.648285 
	C441.795685,378.134918 440.504395,376.323364 439.065277,375.137390 
	C430.475067,368.058380 421.923950,360.929291 413.472839,353.684998 
	C407.441620,348.515076 406.649353,344.762634 409.738037,337.047485 
z"/>
<path fill="url(#sunGradient)" opacity="1.000000" stroke="none" 
	d="
M243.040619,395.923279 
	C240.450073,392.311432 238.079620,388.981506 235.709167,385.651581 
	C235.909012,385.126678 236.108856,384.601807 236.308701,384.076904 
	C258.964111,392.556519 281.916290,396.000916 305.105225,388.780334 
	C306.180328,390.579498 305.214966,391.219086 304.570068,391.895721 
	C296.409485,400.457703 288.355469,409.126221 280.020386,417.515381 
	C272.399414,425.185699 266.664459,424.953522 259.423920,416.553864 
	C253.772751,409.998047 248.629608,403.004333 243.040619,395.923279 
z"/>
<path fill="url(#sunGradient)" opacity="1.000000" stroke="none" 
	d="
M540.301880,451.903625 
	C520.102051,454.061462 502.111298,460.519745 487.144623,474.593567 
	C483.523804,470.495117 481.735657,466.868958 483.629913,461.682068 
	C486.072906,454.992737 487.492065,447.931763 489.890961,441.223541 
	C493.117584,432.200684 498.228088,429.824524 507.427368,432.405121 
	C514.988770,434.526215 521.897095,438.228943 528.902222,441.623047 
	C534.087097,444.135162 539.522461,446.273560 544.217896,449.703339 
	C543.863464,452.110535 541.792358,451.090515 540.301880,451.903625 
z"/>
<path fill="url(#sunGradient)" opacity="1.000000" stroke="none" 
	d="
M543.410156,476.466187 
	C515.336243,485.648285 489.864227,498.951752 466.646332,517.098145 
	C467.949554,507.452606 490.899475,487.729156 511.184509,478.433563 
	C534.857910,467.585236 581.724243,460.471344 591.430664,466.815460 
	C574.793884,468.323700 559.160095,471.716919 543.410156,476.466187 
z"/>

<!-- 'S' Letter -->
<path fill="url(#sGradient)" opacity="1.000000" stroke="none" 
	d="
M390.977905,604.800171 
	C412.223938,604.431030 430.944000,597.702698 448.145294,586.421936 
	C452.782501,583.380798 456.680237,579.490417 459.162201,574.397217 
	C461.601257,569.392151 460.877930,566.415894 456.230957,563.331055 
	C450.526306,559.544189 443.828949,558.713135 437.344116,557.293457 
	C422.737854,554.095703 407.719177,552.723022 393.609497,547.325439 
	C387.012878,544.801880 380.761719,541.754944 376.009064,536.318054 
	C366.790100,525.771851 366.214935,511.778351 374.703827,500.519745 
	C383.318359,489.094482 395.509216,482.430664 408.103668,476.651184 
	C423.762634,469.465393 440.077606,464.339233 457.514252,463.654877 
	C461.072205,463.515228 464.522217,464.113068 467.866516,465.052887 
	C479.601410,468.350586 484.174103,480.322632 478.172821,492.032623 
	C474.276611,499.635223 467.570190,503.779877 459.669891,506.222382 
	C458.100739,506.707520 456.271851,507.070160 455.054871,505.445251 
	C453.754913,503.709534 454.401459,501.957642 455.462463,500.345123 
	C456.924286,498.123596 458.664429,496.050537 459.864075,493.698975 
	C461.785400,489.932800 460.418060,487.652222 456.133392,487.290070 
	C452.479950,486.981262 448.810333,487.038605 445.204224,487.910797 
	C426.707611,492.384430 409.554535,499.834900 394.175354,511.131073 
	C391.537201,513.068787 387.684509,515.076843 388.057495,518.468445 
	C388.468445,522.205383 392.890411,523.217224 396.056671,524.438293 
	C408.353699,529.180664 421.370697,531.363098 434.053192,534.744690 
	C442.297180,536.942810 450.106934,540.060364 457.541199,544.337769 
	C477.298615,555.705566 479.006653,578.916443 467.024872,594.778320 
	C456.267792,609.018860 441.261841,617.179138 424.675507,622.571045 
	C408.029602,627.982300 390.996613,630.472412 373.523529,627.288818 
	C370.428833,626.724915 367.321198,625.913696 364.402557,624.755615 
	C350.425720,619.209473 346.316376,607.212830 354.390259,594.467529 
	C362.701019,581.348389 375.516174,574.027832 389.629028,568.646240 
	C391.177185,568.055969 392.647400,568.088196 393.594513,569.630371 
	C394.716003,571.456543 393.216980,572.356506 392.050751,573.258667 
	C385.714355,578.160156 379.416443,583.127563 374.902985,589.873718 
	C368.834320,598.944397 371.474426,604.030334 382.496765,604.668396 
	C385.155762,604.822327 387.826965,604.764771 390.977905,604.800171 
z"/>
<!-- Wave Arc near 'S' -->
<path fill="url(#sunGradient)" opacity="1.000000" stroke="none" 
	d="
M268.007141,520.252930 
	C265.344757,519.270935 262.634827,519.511902 259.500061,516.307373 
	C296.877350,520.553040 331.920349,516.529053 366.287903,500.579102 
	C364.570190,506.121002 363.418396,510.195099 362.015411,514.180725 
	C361.482208,515.695435 359.761475,516.041260 358.341553,516.501099 
	C338.213287,523.019958 317.650299,526.015869 296.457367,524.535400 
	C286.975555,523.873047 277.624756,522.612366 268.007141,520.252930 
z"/>
<!-- Wave Arc near 'S' -->
<path fill="url(#sunGradient)" opacity="1.000000" stroke="none" 
	d="
M360.920929,486.848846 
	C368.893799,483.873840 376.237793,480.407257 384.225922,476.303101 
	C383.844452,480.283508 381.213623,481.451569 379.419800,483.055908 
	C364.891785,496.049164 347.672058,503.643646 328.820557,507.766998 
	C287.351654,516.837280 247.778961,512.411926 210.685272,490.849091 
	C206.357498,488.333282 206.390503,488.276520 204.257095,484.545807 
	C256.482086,508.484100 308.441376,505.771088 360.920929,486.848846 
z"/>

<!-- 'R' Letter -->
<path fill="url(#rGradient)" opacity="1.000000" stroke="none" 
	d="
M589.084656,497.080261 
	C571.411560,536.188599 550.735657,573.714783 539.239685,615.102844 
	C537.350098,621.906067 536.286011,622.295837 529.797180,619.478760 
	C526.371338,617.991455 523.510437,615.730042 520.908264,613.121033 
	C517.962158,610.167236 517.012573,606.849731 518.350952,602.652771 
	C523.931396,585.153381 531.700195,568.554077 538.991089,551.757385 
	C544.686218,538.636963 550.457275,525.549500 556.502502,511.744263 
	C553.022034,512.135620 550.230652,514.584229 547.456543,512.066467 
	C545.313416,510.121338 543.662720,507.887512 542.585754,505.209351 
	C539.835266,498.369354 541.244934,493.316437 547.753052,489.344360 
	C562.370239,480.423065 578.722717,476.550262 595.363403,473.717346 
	C607.742676,471.609894 620.125793,470.968140 632.546692,473.736023 
	C650.034912,477.633118 661.065491,488.597809 663.733765,505.883545 
	C665.551025,517.656860 660.426758,527.382629 652.921387,535.885925 
	C639.990906,550.535706 622.890869,558.812622 605.316284,566.251160 
	C600.761047,568.179199 596.104004,569.866882 591.234741,571.766052 
	C592.282776,575.704346 594.671936,578.306580 596.783630,580.985779 
	C610.183289,597.986572 626.070435,612.037964 646.132019,620.649841 
	C665.044250,628.768250 684.150452,631.958984 702.991028,619.837769 
	C705.563660,622.581787 703.904297,624.684082 702.472534,626.597778 
	C692.901489,639.390686 679.844604,646.138245 664.151489,647.236328 
	C645.735413,648.525024 630.046387,640.798462 615.535950,630.510376 
	C593.743835,615.059326 577.709473,594.654175 565.396362,571.117920 
	C562.180176,564.970093 563.836060,558.952026 571.865417,557.057678 
	C594.701538,551.669983 615.090027,540.790710 633.460510,526.209717 
	C638.972900,521.834351 643.821106,516.770020 647.420227,510.669037 
	C652.358765,502.297546 649.958191,496.227081 640.655151,493.516205 
	C630.676941,490.608612 620.518494,491.247345 610.427795,492.575989 
	C603.348389,493.508148 596.280945,494.734497 589.084656,497.080261 
z"/>

<!-- Leaf on 'R'-->
<path fill="url(#rGradient)" opacity="1.000000" stroke="none" 
	d="
M685.228271,487.933533 
	C679.274963,487.024139 673.515259,487.114380 667.656067,483.355591 
	C680.543823,477.459656 692.767090,471.708740 701.621460,460.970734 
	C685.811523,470.717163 668.506592,476.120087 650.358398,479.226074 
	C648.734192,477.176483 650.438171,475.724579 651.191345,474.226288 
	C663.054260,450.625671 682.244751,438.614685 708.612976,437.584137 
	C719.177856,437.171204 729.714661,436.039764 740.310913,435.231842 
	C740.490417,436.016907 740.802246,436.549927 740.672913,436.934631 
	C735.473083,452.398438 728.987549,467.052490 715.763367,477.646362 
	C706.932190,484.721039 696.843689,487.862823 685.228271,487.933533 
z"/>

<!-- Wave Arc near 'R' -->
<path fill="url(#waveGradient)" opacity="1.000000" stroke="none" 
	d="
M342.351562,644.575806 
	C404.921936,644.789551 462.694305,630.047913 515.028564,594.928101 
	C512.438293,601.105408 513.364319,608.574463 507.308899,613.230652 
	C478.049561,635.728699 445.058655,649.390503 408.682800,655.347473 
	C389.171539,658.542725 369.536011,659.437927 349.942535,658.083435 
	C309.210297,655.267517 270.749908,644.279175 235.303970,623.592590 
	C234.205170,622.951355 232.778381,622.566162 232.655609,620.820190 
	C234.412827,619.663879 235.790771,621.017334 237.175995,621.603088 
	C268.281067,634.756287 300.655090,642.333313 334.417603,643.885315 
	C336.910187,643.999878 339.392883,644.330261 342.351562,644.575806 
z"/>

<!-- Wave Arc near 'R' -->
<path fill="url(#waveGradient)" opacity="1.000000" stroke="none" 
	d="
M546.877441,633.818481 
	C530.882324,652.364807 509.988037,661.810364 487.426331,668.210144 
	C476.045380,671.438354 464.404816,673.411621 452.500458,673.267212 
	C450.905640,673.247864 449.228027,673.580383 447.425690,672.504639 
	C448.753540,670.115662 451.163757,670.293701 453.019623,669.745361 
	C472.028534,664.128723 489.849335,656.196838 505.258911,643.443970 
	C510.541748,639.071899 515.347656,634.226929 519.343506,628.660461 
	C521.255493,625.996887 522.950073,625.049011 526.374329,626.460327 
	C535.915710,630.393005 540.602417,628.607788 545.995850,619.962280 
	C548.787903,615.486694 551.673523,611.053040 556.102844,607.652283 
	C557.382263,617.771484 552.685364,625.803833 546.877441,633.818481 
z"/>

<!-- Wave Arc near 'R' -->
<path fill="url(#waveGradient)" opacity="1.000000" stroke="none" 
	d="
M388.934296,666.698364 
	C427.031433,663.536682 461.907990,652.122742 493.752930,631.673218 
	C494.453033,631.223755 495.132538,630.738831 495.853241,630.325562 
	C497.016113,629.658752 498.257874,628.867371 499.473236,630.106323 
	C500.783936,631.442566 500.266357,632.909790 499.352966,634.185669 
	C497.705200,636.487305 495.840729,638.588135 493.650818,640.429565 
	C476.584717,654.779907 456.354034,662.038513 434.886963,666.172913 
	C418.869141,669.257812 402.649933,670.717773 386.297028,669.348022 
	C385.063293,669.244690 383.604675,669.720032 382.593292,668.049927 
	C384.199829,666.029175 386.514832,666.998413 388.934296,666.698364 
z"/>
</svg>